<svg width="20" height="20" viewBox="0 0 20 20" xmlns="http://www.w3.org/2000/svg"><title>Shape</title><path d="M15.76.667H4.283C2.288.667.667 2.29.667 4.282v11.48c0 1.994 1.622 3.615 3.615 3.615h11.48c1.994 0 3.615-1.622 3.615-3.615V4.282c0-1.993-1.622-3.615-3.616-3.615zM16.9 2.76l.41-.002v3.105l-3.13.01-.01-3.105 2.73-.01zM10.022 6.89c2.595 0 3.13 2.436 3.13 3.13 0 1.725-1.405 3.13-3.13 3.13-1.726 0-3.13-1.405-3.13-3.13 0-.694.535-3.13 3.13-3.13zm7.305 8.643c0 .988-.804 1.793-1.794 1.793H4.475c-.99 0-1.793-.804-1.793-1.793V7.94H5.28c-.24.593-.377 1.403-.377 2.083 0 2.82 2.294 5.116 5.116 5.116 2.82 0 5.114-2.297 5.114-5.117 0-.68-.136-1.49-.376-2.084h2.566v7.595h.003z" fill="#FFF" fill-rule="evenodd" opacity=".6"/></svg>