<svg xmlns="http://www.w3.org/2000/svg" width="22" height="16" viewBox="1.5 -2.5 22 16"><title>Shape</title><g fill="#F1F2F2"><path d="M7.266 3.366c-.09 0-.163.074-.167.167l-.148 4.06.146 2.123c.004.092.08.166.167.166.09 0 .165-.074.17-.166L7.6 7.594l-.164-4.062c-.005-.093-.08-.166-.17-.166zM4.864 5.276c-.062 0-.113.05-.118.115L4.57 7.58l.176 2.12c.005.064.056.114.118.114.06 0 .112-.05.12-.115l.198-2.12-.2-2.188c-.006-.067-.057-.116-.118-.116zM6.467 4.127c-.08 0-.147.066-.15.15L6.16 7.582l.156 2.135c.004.083.07.15.15.15.08 0 .148-.067.153-.15l.175-2.135-.176-3.306c-.005-.083-.072-.15-.153-.15zM5.663 5.417c-.072 0-.13.057-.135.132l-.166 2.03.167 2.136c.004.075.06.133.134.133.07 0 .13-.06.133-.134l.19-2.135-.19-2.032c-.004-.074-.063-.13-.134-.13zM2.546 6.39c-.042 0-.073.034-.08.08L2.32 7.58l.146 1.093c.007.045.038.077.08.077s.074-.032.08-.077L2.8 7.58l-.174-1.11c-.006-.046-.04-.08-.08-.08zM4.072 5.35c-.053 0-.095.043-.1.1l-.186 2.13.186 2.054c.005.057.047.098.1.098.052 0 .095-.04.1-.098l.212-2.053-.212-2.13c-.005-.057-.048-.1-.1-.1zM3.286 5.703c-.04 0-.077.034-.083.08L3.006 7.58l.196 1.757c.005.048.042.08.083.08.043 0 .077-.032.084-.08l.223-1.758-.223-1.797c-.007-.047-.04-.08-.084-.08zM11.573 2.293c-.04-.027-.088-.042-.14-.042-.05 0-.097.016-.136.042-.07.045-.117.124-.118.212l-.002.048-.096 5.03.097 2.043v.01c.002.056.024.108.06.15.046.056.115.092.193.092.067 0 .13-.03.178-.074.046-.045.075-.11.077-.18l.01-.2.097-1.838-.107-5.08c-.002-.09-.046-.166-.114-.212zM8.097 3c-.1 0-.18.08-.185.183l-.136 4.4.136 2.1c.003.103.085.184.185.184.1 0 .182-.08.186-.184l.154-2.1-.155-4.4C8.28 3.08 8.197 3 8.097 3zM10.59 3.078c-.13 0-.234.104-.238.236l-.106 4.27.105 2.055c.005.13.108.232.24.232.128 0 .233-.104.235-.234l.12-2.054-.12-4.27c0-.132-.106-.236-.235-.236zM19.86 4.96c-.337 0-.658.07-.95.192-.198-2.216-2.056-3.956-4.323-3.956-.556 0-1.097.11-1.575.294-.185.072-.234.146-.236.29v7.806c.002.15.118.27.266.283h6.82c1.357 0 2.46-1.09 2.46-2.45-.002-1.358-1.103-2.46-2.46-2.46zM12.412 1.81c-.04-.022-.087-.037-.14-.037-.063 0-.123.023-.17.062-.06.05-.1.125-.1.208v.028l-.11 5.515.054 1.02.056.99c0 .146.123.268.27.268.148 0 .27-.12.272-.27v.002l.12-2.01-.12-5.543c0-.098-.056-.182-.132-.23zM8.922 2.834c-.11 0-.198.088-.203.202L8.59 7.583 8.72 9.67c.003.11.09.2.202.2.11 0 .198-.09.203-.2l.14-2.087-.14-4.547c-.004-.114-.093-.202-.203-.202zM9.75 2.934c-.118 0-.215.095-.22.22l-.114 4.43.117 2.066c.002.12.1.218.22.218s.215-.097.22-.218l.13-2.066-.13-4.432c-.006-.123-.1-.218-.222-.218z"/></g></svg>