<svg width="21" height="20" viewBox="0 0 21 20" xmlns="http://www.w3.org/2000/svg"><title>Shape</title><path d="M10.663 0C5.15 0 .667 4.485.667 9.997.667 15.513 5.15 20 10.663 20c5.516 0 10.004-4.487 10.004-10.003C20.667 4.485 16.18 0 10.663 0zm4.4 15.687c-.085.16-.26.263-.443.263-.09 0-.17-.02-.252-.064-1.603-.88-3.417-1.347-5.246-1.347-1.106 0-2.19.163-3.224.485-.05.016-.103.023-.154.023-.227 0-.423-.144-.49-.358-.088-.292.096-.94.336-1.02 1.16-.353 2.347-.53 3.532-.53 2.01 0 3.997.508 5.743 1.473.104.057.2.244.24.477.043.233.026.472-.042.597zm1.248-3.7c-.19.37-.41.62-.55.62-.1 0-.195-.024-.29-.072-1.97-1.025-4.105-1.545-6.35-1.545-1.247 0-2.47.164-3.637.488-.054.014-.11.022-.165.022-.28 0-.528-.19-.6-.46-.095-.352.12-.967.436-1.053 1.29-.35 2.626-.53 3.967-.53 2.412 0 4.806.584 6.926 1.69.15.074.258.202.308.36.05.157.036.328-.043.48zm1.333-3.558c-.12.24-.38.497-.664.497-.11 0-.224-.026-.324-.073-2.35-1.175-4.884-1.77-7.534-1.77-1.363 0-2.735.166-4.08.497-.06.015-.12.023-.18.023-.34 0-.632-.23-.714-.557-.102-.414.157-.896.533-.99 1.462-.36 2.956-.54 4.442-.54 2.875 0 5.63.645 8.187 1.92.176.088.31.24.372.426.062.187.048.39-.04.567z" fill="#FFF" fill-rule="evenodd" opacity=".6"/></svg>