<svg width="20" height="17" viewBox="0 0 20 17" xmlns="http://www.w3.org/2000/svg"><title>Shape</title><path d="M19.75 2.51c-.726.313-1.507.524-2.327.62.838-.488 1.48-1.258 1.782-2.177-.783.452-1.65.78-2.574.955-.738-.764-1.79-1.24-2.957-1.24-2.236 0-4.05 1.758-4.05 3.93 0 .31.035.61.104.897-3.367-.164-6.354-1.73-8.35-4.11-.35.582-.55 1.256-.55 1.977 0 1.364.715 2.57 1.802 3.273-.666-.02-1.29-.196-1.837-.493v.05c0 1.906 1.397 3.495 3.25 3.857-.34.088-.697.137-1.067.137-.26 0-.514-.024-.76-.07.514 1.563 2.01 2.7 3.785 2.73-1.387 1.057-3.134 1.684-5.032 1.684-.328 0-.65-.017-.968-.054 1.795 1.116 3.923 1.768 6.213 1.768 7.453 0 11.53-5.994 11.53-11.19l-.013-.51c.79-.553 1.477-1.245 2.02-2.035z" fill="#FFF" fill-rule="evenodd" opacity=".6"/></svg>